<?xml version="1.0"?>
<svg width="192" height="192" xmlns="http://www.w3.org/2000/svg" xmlns:svg="http://www.w3.org/2000/svg" preserveAspectRatio="xMidYMid meet" version="1.0">
 <g class="layer">
  <title>Layer 1</title>
  <g fill="darkviolet" id="svg_1" transform="matrix(0.147692 0 0 -0.150497 -36.9226 8.6372)">
   <path d="m968,-23.84c-80,-21 -151,-113 -183,-238c-22,-85 -30,-99 -69,-115c-38,-16 -70,-49 -64,-67c3,-7 22,-22 44,-33l39,-21l-2,-82c-1,-45 -7,-91 -13,-102c-10,-19 -13,-19 -46,-5c-98,41 -290,58 -343,31c-29,-16 -51,-53 -51,-90c0,-64 127,-253 219,-326c88,-69 159,-72 221,-10c66,66 90,156 110,415c12,156 23,200 51,215c10,6 64,20 120,31c94,19 103,20 118,5c20,-21 19,-94 -5,-279c-20,-162 -16,-317 10,-369c26,-53 71,-78 140,-78c130,0 256,101 256,205c0,49 -30,110 -80,168c-43,48 -83,65 -107,46c-20,-18 -10,-51 39,-120c46,-65 53,-106 22,-140c-40,-45 -128,-73 -160,-51c-37,25 -45,146 -20,338c8,60 17,152 21,203c7,93 8,96 46,133c22,21 39,44 39,51c0,7 -5,4 -10,-5c-6,-9 -24,-20 -41,-23c-18,-4 -27,-10 -22,-14c6,-3 3,-17 -8,-35c-15,-24 -18,-26 -21,-10c-2,11 -7,-37 -11,-106c-4,-69 -14,-172 -22,-230c-25,-185 -16,-308 25,-330c63,-34 201,21 231,91c17,44 -1,92 -61,163c-50,57 -56,76 -31,84c31,10 151,-156 151,-211c0,-118 -224,-237 -314,-166c-67,52 -77,139 -47,391c22,181 27,324 12,300c-7,-11 -9,-11 -14,2c-4,9 -14,16 -24,16c-15,0 -16,2 -3,10c21,13 18,13 -120,-15c-110,-22 -154,-35 -122,-35c6,0 1,-11 -11,-24c-15,-17 -24,-21 -29,-13c-5,8 -8,7 -8,-5c0,-9 -7,-99 -16,-200c-21,-257 -42,-333 -109,-398c-63,-61 -130,-38 -244,86c-70,77 -123,160 -141,221c-31,104 67,128 296,73c82,-19 105,-33 87,-51c-9,-9 -41,-6 -125,10c-62,12 -133,20 -158,20c-32,-2 -37,-3 -16,-6c28,-4 28,-5 7,-19c-11,-8 -21,-23 -21,-32c0,-15 -2,-15 -10,-2c-16,24 -11,2 6,-33c46,-90 190,-247 228,-247c6,0 4,5 -4,10c-11,7 -8,10 16,10c17,0 37,7 44,15c7,8 16,12 21,9c11,-7 35,47 49,111c6,26 17,124 25,218c17,202 17,206 7,190c-6,-9 -12,-8 -24,7c-12,13 -13,20 -5,24c7,3 -5,4 -25,3c-21,0 -40,2 -44,6c-15,15 7,35 47,42c23,4 37,10 31,14c-6,4 -1,15 14,28c13,12 24,16 25,10c0,-7 11,24 23,68c46,165 116,245 215,247c80,1 139,-59 172,-175c10,-34 18,-54 18,-44c1,16 2,16 19,0c11,-10 17,-21 15,-25c-2,-5 13,-8 34,-7l38,1l-41,19c-29,13 -45,28 -54,51c-46,124 -76,165 -142,192c-42,18 -57,18 -110,4zm-231,-735c-3,-10 -5,-2 -5,17c0,19 2,27 5,18c2,-10 2,-26 0,-35zm-172,1c43,-9 91,-14 107,-12c42,7 52,-17 38,-94c-14,-73 -42,-133 -70,-148c-41,-22 -120,39 -201,156c-30,45 -45,87 -34,103c9,16 71,13 160,-5zm875,-177c0,-13 -7,-32 -16,-43c-15,-18 -15,-18 -5,3c6,12 11,31 11,42c0,12 2,21 5,21c3,0 5,-10 5,-23zm-194,-125c-7,-7 -46,9 -46,18c0,5 11,4 25,-2c14,-6 23,-13 21,-16z" id="svg_2"/>
   <path d="m983,-92.84c-37,-11 -79,-57 -104,-116c-20,-47 -36,-122 -24,-111c5,5 15,-2 23,-13c12,-18 13,-23 1,-31c-11,-7 -9,-8 6,-5c11,3 71,15 134,28c77,15 108,25 95,30c-11,4 -13,8 -7,8c7,1 16,13 19,27c5,20 9,23 16,12c16,-23 -2,63 -22,102c-33,65 -76,87 -137,69zm77,-14c33,-19 21,-19 -21,0c-19,8 -27,14 -19,14c8,0 26,-6 40,-14zm11,-36c24,-24 49,-79 49,-107c0,-33 -35,-52 -122,-69c-95,-18 -118,-14 -118,19c0,36 48,131 78,155c35,29 85,30 113,2z" id="svg_3"/>
   <path d="m657,-1031.84c-9,-11 -13,-20 -8,-20c11,0 35,29 29,35c-2,2 -12,-4 -21,-15z" id="svg_4"/>
  </g>
 </g>
</svg>