<?xml version="1.0" standalone="no"?>
<!DOCTYPE svg PUBLIC "-//W3C//DTD SVG 20010904//EN"
 "http://www.w3.org/TR/2001/REC-SVG-20010904/DTD/svg10.dtd">
<svg version="1.0" xmlns="http://www.w3.org/2000/svg"
 width="192.000000pt" height="192.000000pt" viewBox="0 0 192.000000 192.000000"
 preserveAspectRatio="xMidYMid meet">

<g transform="translate(0.000000,192.000000) scale(0.100000,-0.100000)"
fill="darkviolet" stroke="none">
<path d="M998 1528 c-80 -21 -151 -113 -183 -238 -22 -85 -30 -99 -69 -115
-38 -16 -70 -49 -64 -67 3 -7 22 -22 44 -33 l39 -21 -2 -82 c-1 -45 -7 -91
-13 -102 -10 -19 -13 -19 -46 -5 -98 41 -290 58 -343 31 -29 -16 -51 -53 -51
-90 0 -64 127 -253 219 -326 88 -69 159 -72 221 -10 66 66 90 156 110 415 12
156 23 200 51 215 10 6 64 20 120 31 94 19 103 20 118 5 20 -21 19 -94 -5
-279 -20 -162 -16 -317 10 -369 26 -53 71 -78 140 -78 130 0 256 101 256 205
0 49 -30 110 -80 168 -43 48 -83 65 -107 46 -20 -18 -10 -51 39 -120 46 -65
53 -106 22 -140 -40 -45 -128 -73 -160 -51 -37 25 -45 146 -20 338 8 60 17
152 21 203 7 93 8 96 46 133 22 21 39 44 39 51 0 7 -5 4 -10 -5 -6 -9 -24 -20
-41 -23 -18 -4 -27 -10 -22 -14 6 -3 3 -17 -8 -35 -15 -24 -18 -26 -21 -10 -2
11 -7 -37 -11 -106 -4 -69 -14 -172 -22 -230 -25 -185 -16 -308 25 -330 63
-34 201 21 231 91 17 44 -1 92 -61 163 -50 57 -56 76 -31 84 31 10 151 -156
151 -211 0 -118 -224 -237 -314 -166 -67 52 -77 139 -47 391 22 181 27 324 12
300 -7 -11 -9 -11 -14 2 -4 9 -14 16 -24 16 -15 0 -16 2 -3 10 21 13 18 13
-120 -15 -110 -22 -154 -35 -122 -35 6 0 1 -11 -11 -24 -15 -17 -24 -21 -29
-13 -5 8 -8 7 -8 -5 0 -9 -7 -99 -16 -200 -21 -257 -42 -333 -109 -398 -63
-61 -130 -38 -244 86 -70 77 -123 160 -141 221 -31 104 67 128 296 73 82 -19
105 -33 87 -51 -9 -9 -41 -6 -125 10 -62 12 -133 20 -158 20 -32 -2 -37 -3
-16 -6 28 -4 28 -5 7 -19 -11 -8 -21 -23 -21 -32 0 -15 -2 -15 -10 -2 -16 24
-11 2 6 -33 46 -90 190 -247 228 -247 6 0 4 5 -4 10 -11 7 -8 10 16 10 17 0
37 7 44 15 7 8 16 12 21 9 11 -7 35 47 49 111 6 26 17 124 25 218 17 202 17
206 7 190 -6 -9 -12 -8 -24 7 -12 13 -13 20 -5 24 7 3 -5 4 -25 3 -21 0 -40 2
-44 6 -15 15 7 35 47 42 23 4 37 10 31 14 -6 4 -1 15 14 28 13 12 24 16 25 10
0 -7 11 24 23 68 46 165 116 245 215 247 80 1 139 -59 172 -175 10 -34 18 -54
18 -44 1 16 2 16 19 0 11 -10 17 -21 15 -25 -2 -5 13 -8 34 -7 l38 1 -41 19
c-29 13 -45 28 -54 51 -46 124 -76 165 -142 192 -42 18 -57 18 -110 4z m-231
-735 c-3 -10 -5 -2 -5 17 0 19 2 27 5 18 2 -10 2 -26 0 -35z m-172 1 c43 -9
91 -14 107 -12 42 7 52 -17 38 -94 -14 -73 -42 -133 -70 -148 -41 -22 -120 39
-201 156 -30 45 -45 87 -34 103 9 16 71 13 160 -5z m875 -177 c0 -13 -7 -32
-16 -43 -15 -18 -15 -18 -5 3 6 12 11 31 11 42 0 12 2 21 5 21 3 0 5 -10 5
-23z m-194 -125 c-7 -7 -46 9 -46 18 0 5 11 4 25 -2 14 -6 23 -13 21 -16z"/>
<path d="M1013 1459 c-37 -11 -79 -57 -104 -116 -20 -47 -36 -122 -24 -111 5
5 15 -2 23 -13 12 -18 13 -23 1 -31 -11 -7 -9 -8 6 -5 11 3 71 15 134 28 77
15 108 25 95 30 -11 4 -13 8 -7 8 7 1 16 13 19 27 5 20 9 23 16 12 16 -23 -2
63 -22 102 -33 65 -76 87 -137 69z m77 -14 c33 -19 21 -19 -21 0 -19 8 -27 14
-19 14 8 0 26 -6 40 -14z m11 -36 c24 -24 49 -79 49 -107 0 -33 -35 -52 -122
-69 -95 -18 -118 -14 -118 19 0 36 48 131 78 155 35 29 85 30 113 2z"/>
<path d="M687 520 c-9 -11 -13 -20 -8 -20 11 0 35 29 29 35 -2 2 -12 -4 -21
-15z"/>
</g>
</svg>
